<svg width="268" height="35" viewBox="0 0 268 35" fill="none" xmlns="http://www.w3.org/2000/svg">
<path d="M18.6254 35C28.9119 35 37.2508 27.165 37.2508 17.5C37.2508 7.83501 28.9119 0 18.6254 0C8.33886 0 0 7.83501 0 17.5C0 27.165 8.33886 35 18.6254 35Z" fill="#D1AC75"/>
<path d="M18.6253 30.3257C25.8499 30.3257 31.7066 24.8229 31.7066 18.0348C31.7066 11.2467 25.8499 5.7439 18.6253 5.7439C11.4006 5.7439 5.54395 11.2467 5.54395 18.0348C5.54395 24.8229 11.4006 30.3257 18.6253 30.3257Z" fill="#EFE3C7"/>
<path d="M11.3143 18.3346C11.3143 22.2139 18.525 30.1849 22.6621 30.1849C35.3414 30.1849 24.1946 23.8191 25.4425 21.5608C25.9785 20.5929 26.2716 19.4992 26.2716 18.3346C26.2716 14.4553 22.9217 11.3079 18.7929 11.3079C14.6558 11.3157 11.3143 14.4553 11.3143 18.3346Z" fill="white"/>
<path d="M55.2747 7.3501C57.0182 7.3501 58.4814 7.90589 59.6749 9.00773C60.8683 10.1096 61.4599 11.4649 61.4599 13.0641C61.4599 14.6632 60.8683 16.0186 59.6749 17.1204C58.4814 18.2223 57.0182 18.778 55.2747 18.778H52.0887V24.375H48.5187V7.3501H55.2747ZM55.2747 15.6383C56.0323 15.6383 56.6653 15.3945 57.1634 14.8972C57.6616 14.3999 57.9106 13.7954 57.9106 13.0641C57.9106 12.323 57.6616 11.699 57.1634 11.2114C56.6653 10.7239 56.0323 10.4801 55.2747 10.4801H52.0887V15.6383H55.2747Z" fill="white"/>
<path d="M74.1625 22.8539C72.8342 24.0922 71.2152 24.7163 69.2953 24.7163C67.3754 24.7163 65.7668 24.0922 64.4385 22.8539C63.1205 21.6155 62.4563 20.0944 62.4563 18.2905C62.4563 16.4866 63.1205 14.9752 64.4385 13.7271C65.7565 12.4888 67.3754 11.8647 69.2953 11.8647C71.2152 11.8647 72.8342 12.4888 74.1625 13.7271C75.4909 14.9655 76.1551 16.4866 76.1551 18.2905C76.1551 20.0944 75.4909 21.6058 74.1625 22.8539ZM66.7942 20.699C67.4584 21.3328 68.2887 21.6448 69.2953 21.6448C70.2916 21.6448 71.1322 21.3328 71.8067 20.699C72.4813 20.0652 72.8134 19.2656 72.8134 18.2905C72.8134 17.3154 72.4813 16.5159 71.8067 15.8821C71.1322 15.2483 70.2916 14.9362 69.2953 14.9362C68.299 14.9362 67.4584 15.2483 66.7942 15.8821C66.1301 16.5159 65.798 17.3154 65.798 18.2905C65.798 19.2656 66.1301 20.0652 66.7942 20.699Z" fill="white"/>
<path d="M90.0198 21.4308H91.7321V27.6323H88.4735V24.3756H80.4514V27.6323H77.1927V21.4308H78.7702C79.507 20.3972 79.8806 18.9541 79.8806 17.1307V12.2163H90.0302V21.4308H90.0198ZM82.3402 21.4308H86.7611V15.0343H83.1393V17.121C83.1393 18.8469 82.8694 20.2802 82.3402 21.4308Z" fill="white"/>
<path d="M102.4 12.2163H105.742V24.3756H102.4V19.7537H97.253V24.3756H93.9114V12.2163H97.253V16.8089H102.4V12.2163Z" fill="white"/>
<path d="M114.605 16.1069C116.068 16.1069 117.251 16.4872 118.154 17.238C119.047 17.9888 119.503 18.9931 119.503 20.2412C119.503 21.4893 119.057 22.4937 118.154 23.2445C117.262 23.9953 116.078 24.3756 114.605 24.3756H108.752V12.2163H112.093V16.1069H114.605ZM114.626 21.5966C115.093 21.5966 115.477 21.4698 115.778 21.2163C116.078 20.9628 116.234 20.641 116.234 20.2315C116.234 19.8219 116.078 19.4904 115.778 19.2369C115.477 18.9736 115.093 18.8468 114.626 18.8468H112.093V21.5966H114.626ZM120.915 12.2163H124.256V24.3756H120.915V12.2163Z" fill="white"/>
<path d="M130.058 19.5784C130.504 21.0995 131.718 21.8601 133.711 21.8601C134.987 21.8601 135.952 21.4505 136.606 20.6412L139.294 22.1039C138.017 23.8395 136.139 24.7073 133.648 24.7073C131.511 24.7073 129.788 24.1028 128.501 22.8839C127.204 21.6651 126.56 20.1342 126.56 18.2913C126.56 16.4581 127.204 14.9273 128.48 13.7084C129.757 12.4895 131.396 11.8752 133.399 11.8752C135.298 11.8752 136.866 12.4895 138.1 13.7279C139.335 14.9565 139.948 16.4874 139.948 18.301C139.948 18.7106 139.906 19.1396 139.823 19.5881H130.058V19.5784ZM130.006 17.1504H136.606C136.419 16.3216 136.025 15.7073 135.433 15.2978C134.842 14.8882 134.157 14.6932 133.399 14.6932C132.507 14.6932 131.76 14.9077 131.168 15.3368C130.587 15.7658 130.203 16.3704 130.006 17.1504Z" fill="white"/>
<path d="M160.568 12.2163V24.3756H157.227V15.161H152.079V24.3756H148.738V12.2163H160.568Z" fill="white"/>
<path d="M171.123 11.8752C172.866 11.8752 174.35 12.4993 175.585 13.7377C176.82 14.976 177.432 16.4971 177.432 18.301C177.432 20.1049 176.82 21.6163 175.585 22.8644C174.35 24.1028 172.866 24.7268 171.123 24.7268C169.307 24.7268 167.916 24.132 166.93 22.9522V29.2512H163.588V12.2263H166.93V13.6596C167.916 12.4603 169.307 11.8752 171.123 11.8752ZM167.937 20.7582C168.611 21.4018 169.462 21.7138 170.5 21.7138C171.538 21.7138 172.389 21.392 173.074 20.7582C173.759 20.1147 174.091 19.2956 174.091 18.2913C174.091 17.2869 173.748 16.4679 173.074 15.8243C172.389 15.1808 171.538 14.859 170.5 14.859C169.462 14.859 168.611 15.1808 167.937 15.8243C167.262 16.4679 166.93 17.2869 166.93 18.2913C166.93 19.2956 167.262 20.1147 167.937 20.7582Z" fill="white"/>
<path d="M190.726 22.8539C189.398 24.0922 187.779 24.7163 185.859 24.7163C183.939 24.7163 182.331 24.0922 181.002 22.8539C179.684 21.6155 179.02 20.0944 179.02 18.2905C179.02 16.4866 179.684 14.9752 181.002 13.7271C182.32 12.4888 183.939 11.8647 185.859 11.8647C187.779 11.8647 189.398 12.4888 190.726 13.7271C192.055 14.9655 192.719 16.4866 192.719 18.2905C192.719 20.0944 192.044 21.6058 190.726 22.8539ZM183.358 20.699C184.022 21.3328 184.853 21.6448 185.859 21.6448C186.856 21.6448 187.696 21.3328 188.371 20.699C189.045 20.0652 189.377 19.2656 189.377 18.2905C189.377 17.3154 189.045 16.5159 188.371 15.8821C187.696 15.2483 186.856 14.9362 185.859 14.9362C184.863 14.9362 184.022 15.2483 183.358 15.8821C182.694 16.5159 182.362 17.3154 182.362 18.2905C182.362 19.2656 182.694 20.0652 183.358 20.699Z" fill="white"/>
<path d="M201.135 24.707C199.184 24.707 197.555 24.0927 196.258 22.8544C194.95 21.6258 194.307 20.0949 194.307 18.2813C194.307 16.4676 194.961 14.9465 196.258 13.7081C197.565 12.4795 199.184 11.8555 201.135 11.8555C202.391 11.8555 203.543 12.1383 204.581 12.7038C205.619 13.2693 206.397 14.0299 206.937 14.9855L204.062 16.5651C203.802 16.0581 203.408 15.668 202.889 15.3755C202.36 15.083 201.768 14.9367 201.115 14.9367C200.118 14.9367 199.288 15.2488 198.634 15.8728C197.981 16.4969 197.648 17.2964 197.648 18.2715C197.648 19.2271 197.981 20.0169 198.634 20.641C199.288 21.265 200.118 21.577 201.115 21.577C201.789 21.577 202.391 21.4308 202.91 21.148C203.439 20.8652 203.834 20.4752 204.083 19.9681L206.978 21.5283C206.407 22.4838 205.608 23.2542 204.57 23.8295C203.543 24.4243 202.391 24.707 201.135 24.707Z" fill="white"/>
<path d="M219.463 12.2163V15.2293H215.426V24.3756H212.084V15.2293H207.995V12.2163H219.463Z" fill="white"/>
<path d="M232.165 22.8539C230.837 24.0922 229.218 24.7163 227.298 24.7163C225.378 24.7163 223.77 24.0922 222.441 22.8539C221.123 21.6155 220.459 20.0944 220.459 18.2905C220.459 16.4866 221.123 14.9752 222.441 13.7271C223.759 12.4888 225.378 11.8647 227.298 11.8647C229.218 11.8647 230.837 12.4888 232.165 13.7271C233.494 14.9655 234.158 16.4866 234.158 18.2905C234.158 20.0944 233.494 21.6058 232.165 22.8539ZM224.797 20.699C225.461 21.3328 226.291 21.6448 227.298 21.6448C228.294 21.6448 229.135 21.3328 229.809 20.699C230.484 20.0652 230.816 19.2656 230.816 18.2905C230.816 17.3154 230.484 16.5159 229.809 15.8821C229.135 15.2483 228.294 14.9362 227.298 14.9362C226.302 14.9362 225.461 15.2483 224.797 15.8821C224.133 16.5159 223.801 17.3154 223.801 18.2905C223.801 19.2656 224.133 20.0652 224.797 20.699Z" fill="white"/>
<path d="M243.892 11.8752C245.636 11.8752 247.12 12.4993 248.355 13.7377C249.59 14.976 250.202 16.4971 250.202 18.301C250.202 20.1049 249.59 21.6163 248.355 22.8644C247.12 24.1028 245.636 24.7268 243.892 24.7268C242.076 24.7268 240.685 24.132 239.7 22.9522V29.2512H236.358V12.2263H239.7V13.6596C240.675 12.4603 242.076 11.8752 243.892 11.8752ZM240.706 20.7582C241.381 21.4018 242.232 21.7138 243.27 21.7138C244.307 21.7138 245.158 21.392 245.843 20.7582C246.528 20.1147 246.86 19.2956 246.86 18.2913C246.86 17.2869 246.518 16.4679 245.843 15.8243C245.158 15.1808 244.307 14.859 243.27 14.859C242.232 14.859 241.381 15.1808 240.706 15.8243C240.032 16.4679 239.7 17.2869 239.7 18.2913C239.7 19.2956 240.032 20.1147 240.706 20.7582Z" fill="white"/>
<path d="M258.348 16.1069C259.812 16.1069 260.995 16.4872 261.898 17.238C262.79 17.9888 263.247 18.9931 263.247 20.2412C263.247 21.4893 262.801 22.4937 261.898 23.2445C261.005 23.9953 259.822 24.3756 258.348 24.3756H252.495V12.2163H255.837V16.1069H258.348ZM258.369 21.5966C258.836 21.5966 259.22 21.4698 259.521 21.2163C259.822 20.9628 259.978 20.641 259.978 20.2315C259.978 19.8219 259.822 19.4904 259.521 19.2369C259.22 18.9736 258.836 18.8468 258.369 18.8468H255.837V21.5966H258.369ZM264.658 12.2163H268V24.3756H264.658V12.2163Z" fill="white"/>
<path d="M13.2656 33.434L19.1614 34.992L15.5853 33.3789L0 27.7371C0 31.3645 2.83066 34.992 7.4535 34.992C9.06982 34.9999 12.0429 34.3546 13.2656 33.434Z" fill="#005399"/>
<path d="M37.1839 16.0288C37.1839 16.0288 27.5278 16.0602 22.5867 25.4633C28.382 24.4561 28.5747 28.1151 28.5747 28.1151C28.5747 28.1151 26.5898 27.399 24.6888 28.4692C22.7877 29.5393 19.3373 30.2318 16.4564 24.8181C13.5755 19.4044 8.39995 11.3311 1.90954 9.78101C0.628208 12.236 -0.066891 15.0137 0.00848151 17.9487C0.259723 27.2259 8.33295 34.7878 18.2067 34.9923C28.6835 35.2048 37.2509 27.2889 37.2509 17.4923C37.2592 17.0045 37.2257 16.5166 37.1839 16.0288Z" fill="#005399"/>
</svg>
