<svg width="39" height="40" viewBox="0 0 39 40" fill="none" xmlns="http://www.w3.org/2000/svg">
<path d="M19.5 40C30.2696 40 39 31.0457 39 20C39 8.95431 30.2696 0 19.5 0C8.73045 0 0 8.95431 0 20C0 31.0457 8.73045 40 19.5 40Z" fill="#0F0E0E"/>
<ellipse cx="19.7284" cy="20.2344" rx="10.425" ry="10.6924" fill="#0F0E0E"/>
<path fill-rule="evenodd" clip-rule="evenodd" d="M19.636 8.75C22.7701 8.78438 25.8622 10.2583 27.8718 12.7247C29.5122 14.6928 30.4352 17.2581 30.4688 19.8449C30.1744 19.8339 29.8797 19.8245 29.5849 19.8151L29.5849 19.8151C28.0309 19.7653 26.4738 19.7155 24.9433 19.441C23.6511 19.2089 22.3673 18.6589 21.4821 17.6405C20.5716 16.6565 20.1521 15.3201 19.9633 14.0053C19.7513 12.5186 19.7055 11.0099 19.6598 9.5061L19.6598 9.50556C19.6521 9.25353 19.6445 9.00163 19.636 8.75ZM30.4689 20.0847C28.8704 20.1277 27.2719 20.175 25.686 20.3641C24.4399 20.5317 23.1645 20.8455 22.1618 21.6537C21.0542 22.4962 20.3619 23.803 20.0976 25.1743C19.7679 26.8416 19.7168 28.5458 19.6658 30.2453C19.6565 30.5569 19.6472 30.8685 19.6361 31.1796C22.2079 31.1452 24.7672 30.1651 26.7013 28.4155C29.0424 26.3565 30.4311 23.2442 30.4689 20.0847ZM9.48599 20.1877C9.16749 20.1775 8.84919 20.1673 8.53137 20.1551C8.56913 22.7978 9.5299 25.4189 11.2375 27.3999C13.2513 29.7933 16.2888 31.2113 19.3641 31.25L19.36 31.0959C19.3195 29.6047 19.2791 28.1137 19.125 26.6307C18.9656 25.1311 18.5964 23.5583 17.5685 22.4153C16.721 21.4141 15.4875 20.8383 14.2289 20.5934C12.6636 20.2892 11.0721 20.2384 9.48599 20.1877ZM19.403 8.7501C17.2228 8.79295 15.0426 9.46996 13.258 10.7597C10.3665 12.7693 8.56925 16.2486 8.53137 19.8051C9.64673 19.7965 10.7663 19.7408 11.8817 19.6723C13.3253 19.5651 14.8111 19.4152 16.12 18.7424C17.4837 18.0183 18.477 16.6728 18.839 15.1603C19.2565 13.46 19.3095 11.7031 19.3622 9.95395C19.3744 9.55199 19.3865 9.15045 19.403 8.7501Z" fill="white"/>
</svg>
