<svg width="24" height="24" viewBox="0 0 24 24" fill="none" xmlns="http://www.w3.org/2000/svg">
<path fill-rule="evenodd" clip-rule="evenodd" d="M20.7941 3.12693C20.8585 3.17973 20.9104 3.24618 20.946 3.32148C20.9816 3.39677 21.0001 3.47903 21 3.56232V19.3128C20.9999 19.4428 20.9548 19.5687 20.8724 19.6692C20.7899 19.7697 20.6752 19.8386 20.5477 19.8641L14.9227 20.9891C14.85 21.0036 14.775 21.0036 14.7023 20.9891L9.1875 19.8866L3.67275 20.9891C3.59117 21.0054 3.507 21.0034 3.42629 20.9833C3.34557 20.9631 3.27033 20.9253 3.20599 20.8726C3.14164 20.8199 3.08979 20.7535 3.05417 20.6783C3.01855 20.6032 3.00005 20.521 3 20.4378V4.68735C3.00008 4.55736 3.04518 4.4314 3.12762 4.3309C3.21007 4.2304 3.32478 4.16156 3.45225 4.13608L9.07725 3.01105C9.15003 2.9965 9.22497 2.9965 9.29775 3.01105L14.8125 4.11358L20.3273 3.01105C20.4088 2.99464 20.493 2.99653 20.5737 3.01656C20.6544 3.0366 20.7297 3.0743 20.7941 3.12693ZM14.25 5.14862L9.75 4.24859V18.8515L14.25 19.7516V5.14862ZM15.375 19.7516L19.875 18.8515V4.24859L15.375 5.14862V19.7516ZM8.625 18.8515V4.24859L4.125 5.14862V19.7516L8.625 18.8515Z" fill="white"/>
</svg>
