<svg width="24" height="25" viewBox="0 0 24 25" fill="none" xmlns="http://www.w3.org/2000/svg">
<path d="M19 10.4886C19 16.2159 12 21.125 12 21.125C12 21.125 5 16.2159 5 10.4886C5 8.53568 5.7375 6.66271 7.05025 5.28176C8.36301 3.90081 10.1435 3.125 12 3.125C13.8565 3.125 15.637 3.90081 16.9497 5.28176C18.2625 6.66271 19 8.53568 19 10.4886Z" stroke="white" stroke-width="2" stroke-linecap="round" stroke-linejoin="round"/>
<path d="M12 12.125C13.1046 12.125 14 11.2296 14 10.125C14 9.02043 13.1046 8.125 12 8.125C10.8954 8.125 10 9.02043 10 10.125C10 11.2296 10.8954 12.125 12 12.125Z" stroke="white" stroke-width="2" stroke-linecap="round" stroke-linejoin="round"/>
</svg>
