<svg width="763" height="745" viewBox="0 0 763 745" fill="none" xmlns="http://www.w3.org/2000/svg">
<path d="M273.355 432.164L0 744.855L125.227 605.338L147.31 583.931C177.053 555.097 216.758 538.826 258.182 538.496L442.575 537.03C529.785 536.337 614.278 506.608 682.708 452.54L762.39 389.581L372.177 387.597C334.329 387.405 298.265 403.669 273.355 432.164Z" fill="url(#paint0_linear_3_802)"/>
<path d="M443.003 389.474L375.814 389.132C337.71 388.939 305.488 412.165 274.553 434.463L273.752 435.04C247.205 454.173 314.621 399.021 323.307 367.472C330.984 339.591 327.366 306.996 334.743 279.035C342.832 248.373 362.301 230.63 387.348 211.182C411.019 192.802 432.925 201.497 455.201 181.449C554.311 92.2492 649.61 -3.05176e-05 649.61 -3.05176e-05C649.61 -3.05176e-05 498.657 171.538 461.3 221.093C436.012 254.638 452.914 359.086 443.003 389.474Z" fill="url(#paint1_linear_3_802)"/>
<path d="M125.227 605.337L147.31 583.93C177.053 555.097 216.758 538.826 258.182 538.496L373.571 537.579C373.571 537.579 330.115 592.377 260.737 625.16C204.619 651.677 167.47 646.486 112.834 667.091C62.1224 686.216 0 744.855 0 744.855L125.227 605.337Z" fill="url(#paint2_linear_3_802)"/>
<circle cx="397.205" cy="257.688" r="12.1982" fill="white"/>
<defs>
<linearGradient id="paint0_linear_3_802" x1="763.152" y1="387.294" x2="122.745" y2="565.693" gradientUnits="userSpaceOnUse">
<stop stop-color="#FED5A8"/>
<stop offset="0.854167" stop-color="#FF9521"/>
</linearGradient>
<linearGradient id="paint1_linear_3_802" x1="650.319" y1="-14.4854" x2="267.599" y2="439.137" gradientUnits="userSpaceOnUse">
<stop stop-color="#472967"/>
<stop offset="0.533051" stop-color="#563081"/>
<stop offset="1" stop-color="#92435C"/>
</linearGradient>
<linearGradient id="paint2_linear_3_802" x1="374.333" y1="538.247" x2="0.762411" y2="731.894" gradientUnits="userSpaceOnUse">
<stop stop-color="#A04755"/>
<stop offset="0.395833" stop-color="#EC6324"/>
<stop offset="0.90625" stop-color="#F9DB42"/>
</linearGradient>
</defs>
</svg>
