<svg width="24" height="24" viewBox="0 0 24 24" fill="none" xmlns="http://www.w3.org/2000/svg">
<path fill-rule="evenodd" clip-rule="evenodd" d="M7.7585 5.7675C8.31404 5.20779 8.97479 4.76347 9.70272 4.46013C10.4307 4.15679 11.2114 4.00041 12 4C13.59 4 15.116 4.635 16.2415 5.7675C17.3687 6.90308 18.0009 8.43847 18 10.0385C18 12.8015 16.468 15.3025 14.872 17.149C14.1994 17.9234 13.4703 18.6467 12.6905 19.313C12.4075 19.555 12.1705 19.7445 12 19.876C11.83 19.7445 11.5925 19.555 11.3095 19.313C10.5297 18.6467 9.80057 17.9234 9.128 17.149C7.532 15.3025 6 12.8015 6 10.0385C6 8.436 6.633 6.9 7.7585 5.7675ZM11.712 20.9085L12 20.5L12.288 20.9085C12.2037 20.9678 12.1031 20.9996 12 20.9996C11.8969 20.9996 11.7963 20.9678 11.712 20.9085ZM11.712 20.9085L12 20.5L12.288 20.9085L12.29 20.9075L12.295 20.904L12.31 20.8925L12.369 20.85C12.419 20.813 12.492 20.759 12.584 20.688C12.768 20.547 13.029 20.3395 13.3405 20.073C14.1582 19.3741 14.9228 18.6153 15.628 17.803C17.282 15.89 19 13.1595 19 10.038C19 8.173 18.263 6.383 16.951 5.063C16.3025 4.4097 15.5312 3.89109 14.6815 3.53704C13.8318 3.18298 12.9205 3.00047 12 3C11.0795 3.0004 10.1682 3.18284 9.31853 3.53681C8.46883 3.89077 7.69753 4.40929 7.049 5.0625C5.73571 6.38552 4.99912 8.17434 5 10.0385C5 13.1595 6.718 15.89 8.372 17.803C9.07719 18.6153 9.8418 19.3741 10.6595 20.073C10.9715 20.3395 11.232 20.547 11.416 20.688C11.5063 20.7576 11.5974 20.8259 11.6895 20.893L11.7055 20.904L11.71 20.9075L11.712 20.9085ZM10 10C10 9.46957 10.2107 8.96086 10.5858 8.58579C10.9609 8.21071 11.4696 8 12 8C12.5304 8 13.0391 8.21071 13.4142 8.58579C13.7893 8.96086 14 9.46957 14 10C14 10.5304 13.7893 11.0391 13.4142 11.4142C13.0391 11.7893 12.5304 12 12 12C11.4696 12 10.9609 11.7893 10.5858 11.4142C10.2107 11.0391 10 10.5304 10 10ZM12 7C11.2044 7 10.4413 7.31607 9.87868 7.87868C9.31607 8.44129 9 9.20435 9 10C9 10.7956 9.31607 11.5587 9.87868 12.1213C10.4413 12.6839 11.2044 13 12 13C12.7957 13 13.5587 12.6839 14.1213 12.1213C14.6839 11.5587 15 10.7956 15 10C15 9.20435 14.6839 8.44129 14.1213 7.87868C13.5587 7.31607 12.7957 7 12 7Z" fill="#9EA6B6"/>
</svg>
